# xmcd
#
# Track frame offsets: 
#        150
#        10035
#        23430
#        34618
#        46590
#        62953
#        73985
#        88400
#        101968
#        113855
#        128223
#        141083
#        155398
#        169585
#
# Disc length: 2441 seconds
#
# Revision: 4
# Processed by: cddbd v1.5.1PL0 Copyright (c) Steve Scherf et al.
# Submitted via: ExactAudioCopy v0.95a3
#
DISCID=b809870e
DTITLE=Various Artist - Black, White and Blues
DYEAR=1991
DGENRE=Blues
TTITLE0=John Mayall: I'm Your Witch Doctor
TTITLE1=John Lee Hooker: Ground Hog Blues
TTITLE2=Eric Clapton: Snake Drive
TTITLE3=Muddy Waters: Long Distance Call
TTITLE4=Savoy Brown Blues Band: Can't Quit You Baby
TTITLE5=Howlin' Wolf: The Red Rooster
TTITLE6=Rod Stewart: So Much To Say
TTITLE7=Lowell Fulson: Blue Soul
TTITLE8=Jeff Beck and The All Stars: Steelin'
TTITLE9=Little Milton: If Walls Could Talk
TTITLE10=Fleetwood Mac: Man Of The World
TTITLE11=Little Walter: Sad Hours
TTITLE12=Eric Clapton and Jimmy Page: Draggin' My Tail
TTITLE13=Memphis Slim: Slim's Blues
EXTD=
EXTT0=
EXTT1=
EXTT2=
EXTT3=
EXTT4=
EXTT5=
EXTT6=
EXTT7=
EXTT8=
EXTT9=
EXTT10=
EXTT11=
EXTT12=
EXTT13=
PLAYORDER=
